<svg version="1.1" id="Layer_1"
	xmlns="http://www.w3.org/2000/svg"
	xmlns:xlink="http://www.w3.org/1999/xlink" x="0px" y="0px" width="100%" viewBox="0 0 1024 1024" enable-background="new 0 0 1024 1024" xml:space="preserve">
	<path opacity="1.000000" stroke="none" d="
M559.011475,359.018311 
	C551.465454,366.966858 542.479004,371.693054 532.166260,373.588501 
	C532.407776,376.473297 534.303284,377.226898 535.582825,378.387726 
	C572.361328,411.752808 608.759399,445.529053 644.913452,479.568054 
	C650.603638,484.925262 656.390076,490.238281 658.418640,498.346222 
	C660.751709,507.671082 657.844238,517.330688 650.810120,522.556091 
	C643.045288,528.324280 632.990967,528.691650 624.552063,523.520630 
	C620.532166,521.057434 617.140991,517.854614 614.007141,514.385010 
	C582.062256,479.017578 550.142090,443.627808 518.202698,408.255402 
	C513.661072,403.225616 510.440460,397.083832 504.874908,392.099304 
	C500.912140,396.485199 497.087646,400.588470 493.404388,404.814819 
	C460.553558,442.509521 426.415344,479.028473 392.297455,515.565796 
	C389.336914,518.736328 386.177460,521.720337 382.371796,523.891052 
	C371.871735,529.880066 359.086731,527.610229 351.676514,518.473145 
	C344.565094,509.704407 344.977448,496.484436 353.651764,487.971741 
	C370.775024,471.167633 388.382935,454.857880 405.760376,438.312134 
	C427.121674,417.973175 448.718750,397.879669 469.281097,376.712769 
	C480.757690,364.898743 480.764893,365.071259 469.849335,353.266022 
	C465.106201,348.136230 459.247131,348.703247 453.600372,349.874847 
	C433.983124,353.945129 417.354767,349.577789 404.276978,333.789551 
	C401.305145,330.201874 397.983490,326.902344 394.796204,323.495117 
	C378.300690,305.861115 362.408081,287.654205 344.533447,271.335419 
	C340.194489,267.374146 335.332092,263.401703 336.528625,256.217804 
	C337.802216,248.571503 344.598145,244.574509 351.739166,247.612167 
	C355.946686,249.401962 359.337463,252.362366 362.546997,255.550964 
	C380.291656,273.179962 396.829620,291.929626 413.547760,310.510376 
	C416.102112,313.349274 418.715057,315.051483 422.707825,313.487366 
	C427.725464,311.521820 429.545532,306.644806 426.457825,302.158478 
	C424.866852,299.846924 422.919525,297.693695 420.806244,295.842163 
	C401.726532,279.126038 384.578217,260.450317 366.622620,242.595032 
	C364.208282,240.194199 362.511200,237.508072 362.480835,233.833908 
	C362.440033,228.902176 364.591797,225.553848 368.939819,223.529938 
	C373.079132,221.603195 376.409851,223.332748 379.291809,226.201141 
	C395.942810,242.773819 412.558472,259.381989 429.178284,275.985962 
	C433.893219,280.696350 438.503998,285.514221 443.312683,290.126251 
	C446.065765,292.766693 449.190704,294.107788 452.496643,290.778046 
	C456.373901,286.872864 456.673828,283.753113 453.011383,279.949463 
	C435.100677,261.348206 417.814667,242.128082 398.482422,224.928665 
	C395.132416,221.948257 392.017456,218.658127 389.098083,215.250519 
	C385.246063,210.754318 385.434967,204.481949 389.197479,200.717133 
	C392.905090,197.007187 397.856018,196.911346 402.801300,200.507767 
	C404.011169,201.387604 405.230438,202.301407 406.257416,203.378769 
	C427.654816,225.825653 450.736450,246.553787 473.015198,268.086517 
	C490.995239,285.464447 493.235687,305.196198 487.369202,327.513947 
	C486.534851,330.688049 486.521942,332.587738 489.612213,334.505402 
	C492.087097,336.041199 494.121216,338.472473 495.948090,340.819885 
	C498.171417,343.676605 499.907837,343.579712 502.320374,341.040741 
	C510.926453,331.983826 519.604004,322.992767 528.366150,314.086700 
	C565.764465,276.074005 603.197388,238.095398 640.631775,200.118240 
	C646.816528,193.843857 653.859497,190.131165 663.051758,192.580780 
	C673.683411,195.413971 678.948669,203.207520 677.822510,214.172043 
	C676.681519,225.281189 671.880432,234.837219 665.993286,244.041336 
	C653.512878,263.553131 637.645691,280.214111 621.511169,296.598450 
	C600.935547,317.492706 580.026855,338.058990 559.011475,359.018311 
z"/>
	<path opacity="1.000000" stroke="none" d="
M184.297729,764.067017 
	C170.461197,760.916443 158.172867,755.692383 148.987122,744.959167 
	C140.765198,735.352173 136.093353,724.264343 135.446274,710.900208 
	C146.569427,710.900208 157.170914,710.876160 167.772095,710.922852 
	C169.633728,710.931030 170.067734,712.410034 170.520691,713.946045 
	C175.200745,729.816650 186.628998,736.336365 202.379196,736.813477 
	C209.210709,737.020386 216.011215,737.175232 222.604538,734.762329 
	C230.928162,731.716187 235.880997,725.989197 236.595734,717.102966 
	C237.308533,708.241089 232.406952,702.720215 224.884476,699.148804 
	C215.366394,694.630127 205.159149,692.152893 195.073318,689.321899 
	C185.788239,686.715698 176.502014,684.143860 167.499969,680.595215 
	C150.293869,673.812317 140.046646,661.484314 137.961060,643.071960 
	C135.909241,624.957825 141.474075,609.322815 155.861420,597.769775 
	C171.156586,585.487671 189.049759,581.745605 208.387878,583.323975 
	C218.625992,584.159546 228.484009,586.187744 237.705826,590.693176 
	C253.847397,598.579163 263.330627,611.370239 265.842285,629.311462 
	C266.365814,633.051208 265.014404,634.132874 261.628998,634.109741 
	C253.464249,634.054016 245.298584,634.084595 237.133621,634.134644 
	C234.777893,634.149109 232.806259,633.673706 232.043274,631.116089 
	C227.441299,615.689636 208.879456,610.311768 194.569122,613.035156 
	C188.708572,614.150513 183.200348,615.767151 179.152603,620.430298 
	C170.650284,630.225281 173.522324,644.082581 185.352127,650.377197 
	C194.264893,655.119568 204.072403,657.182983 213.740158,659.631104 
	C222.442734,661.834656 231.160461,663.924988 239.620224,667.028870 
	C257.932129,673.747498 268.604126,686.790161 271.219757,705.936890 
	C274.088654,726.937683 266.465881,743.474854 248.285965,754.743469 
	C232.070145,764.794617 214.343979,767.822388 195.570724,765.576416 
	C191.945648,765.142639 188.328140,764.645630 184.297729,764.067017 
z"/>
	<path opacity="1.000000" stroke="none" d="
M322.002014,667.155518 
	C321.166718,672.016968 318.907898,673.888550 314.037323,673.503174 
	C307.747406,673.005432 301.388306,673.412170 295.059448,673.367798 
	C289.729675,673.330383 289.046295,672.403198 289.985474,667.125916 
	C293.339325,648.280457 304.969147,636.988342 322.987976,632.458679 
	C342.642029,627.517883 362.019684,628.363708 379.798004,639.305786 
	C390.684753,646.006226 395.639526,656.518921 396.298828,669.069885 
	C397.837280,698.354736 397.087280,727.670410 397.427704,756.971619 
	C397.485168,761.916077 396.235443,763.825562 391.047546,763.498352 
	C384.245575,763.069397 377.392273,763.243164 370.569336,763.441895 
	C366.930115,763.547791 365.340454,762.299622 365.619293,758.574707 
	C365.816986,755.933960 365.657623,753.266541 365.657623,750.665283 
	C363.798218,749.957764 363.437195,751.489380 362.779297,752.200317 
	C351.282684,764.623535 336.554718,767.830688 320.488922,766.853760 
	C313.492432,766.428345 306.737213,764.703674 300.412659,761.444336 
	C285.240967,753.625427 280.783295,737.004272 282.157349,722.836243 
	C284.188507,701.892639 296.610199,694.066528 313.577087,689.731750 
	C327.968048,686.055115 342.864105,685.985229 357.467926,683.788879 
	C363.935272,682.816223 364.062897,683.002197 363.830383,676.012329 
	C363.470642,665.195862 359.239105,659.499329 350.046478,657.456482 
	C336.788208,654.510010 327.047577,657.776672 322.002014,667.155518 
M323.301788,739.417236 
	C327.779114,741.268127 332.529449,741.087769 337.110382,740.570984 
	C354.871185,738.567383 364.667847,726.741699 364.530762,709.149109 
	C364.504517,705.777649 363.493164,704.095093 359.314117,704.963562 
	C353.492462,706.173279 347.562378,707.006470 341.589020,707.558777 
	C335.515930,708.120300 329.330292,708.651245 323.609375,711.267761 
	C318.033752,713.817871 314.438232,717.614563 314.178467,724.128357 
	C313.906830,730.939209 316.057953,736.203430 323.301788,739.417236 
z"/>
	<path opacity="1.000000" stroke="none" d="
M837.398926,658.446655 
	C830.470337,655.754517 823.727966,655.579041 816.950623,657.152100 
	C810.244690,658.708618 805.711182,662.667236 804.023438,669.567200 
	C803.549927,671.503235 803.027222,673.411316 800.270325,673.384827 
	C791.298096,673.298523 782.324524,673.352539 772.822021,673.352539 
	C772.374695,663.592224 775.140503,655.288757 780.742798,647.999023 
	C789.775513,636.245361 802.495483,631.212830 816.705383,629.950256 
	C828.835693,628.872314 840.947449,629.432190 852.678528,633.556458 
	C869.303955,639.401184 878.704041,653.049255 879.482849,670.592590 
	C880.421692,691.742004 879.818542,712.893311 880.510986,734.023804 
	C880.825073,743.610229 880.999695,753.270630 883.066101,763.337708 
	C872.498474,763.337708 862.382629,763.330383 852.266785,763.342957 
	C849.768066,763.346069 849.211914,761.667297 849.168213,759.698975 
	C849.091614,756.246460 849.146851,752.790955 849.146851,748.943176 
	C831.661804,767.420715 811.151367,770.530396 788.615479,762.166687 
	C772.052673,756.019836 765.172913,743.374634 765.666260,722.560364 
	C766.017029,707.761169 774.588745,697.094849 790.261414,691.486084 
	C800.397156,687.858826 810.954224,686.779663 821.526855,685.676758 
	C828.792175,684.918945 836.072632,684.306030 843.337036,683.539795 
	C844.973328,683.367126 846.591492,682.989441 847.118958,680.920227 
	C849.322632,672.275940 845.590698,663.301819 837.398926,658.446655 
M847.683716,708.049072 
	C848.316284,704.311584 846.215820,703.839539 843.308472,704.442017 
	C836.481445,705.856567 829.586914,706.752563 822.664795,707.583557 
	C816.929565,708.272095 811.092590,708.857361 805.771118,711.511169 
	C799.938660,714.419739 796.839417,719.773743 797.390991,726.101318 
	C798.032349,733.457336 801.725281,737.970947 808.512085,739.693726 
	C829.456909,745.010254 847.630371,730.719177 847.683716,708.049072 
z"/>
	<path opacity="1.000000" stroke="none" d="
M579.505859,632.203186 
	C603.091675,626.722351 624.692688,629.899292 643.329651,645.370178 
	C662.762512,661.501709 668.295166,683.339600 665.802063,707.386414 
	C663.498169,729.607971 652.561951,746.900879 632.820251,757.998169 
	C601.948364,775.351929 560.234802,765.119507 542.408752,735.968628 
	C527.495239,711.580627 529.635681,674.100586 547.233704,652.703064 
	C555.640991,642.480591 566.416382,635.884094 579.505859,632.203186 
M627.884949,719.373108 
	C633.872437,707.649475 634.033630,695.430481 630.685852,683.031799 
	C626.960205,669.233765 615.861755,659.194580 603.755554,658.326477 
	C586.616577,657.097595 575.243835,663.756897 568.851196,678.968750 
	C564.867859,688.447327 564.544983,698.274658 566.383362,708.304016 
	C569.296387,724.196838 579.499512,734.457153 595.877563,737.091248 
	C607.247192,738.919739 621.487671,732.594849 627.884949,719.373108 
z"/>
	<path opacity="1.000000" stroke="none" d="
M409.138794,633.628723 
	C416.949982,633.630310 424.286438,633.836548 431.603668,633.551270 
	C435.448273,633.401367 437.180847,634.852051 438.352692,638.418701 
	C447.276917,665.580322 456.367767,692.687134 465.422272,719.805847 
	C466.000336,721.537231 466.708435,723.225220 467.741333,725.949524 
	C471.188416,715.858643 474.404388,706.612854 477.506348,697.328918 
	C484.094757,677.610291 490.691559,657.893860 497.108246,638.119202 
	C498.138489,634.944153 499.525208,633.464600 503.030609,633.562439 
	C510.852692,633.780823 518.685120,633.613159 526.513062,633.652588 
	C527.962646,633.659912 529.526184,633.355286 530.771667,634.516602 
	C531.443542,636.282532 530.474487,637.794678 529.951538,639.317505 
	C516.340210,678.954224 502.638092,718.559814 489.137207,758.233948 
	C487.768188,762.257019 485.777588,763.613525 481.597382,763.479736 
	C472.279816,763.181519 462.944427,763.292419 453.619812,763.446289 
	C450.535187,763.497253 448.811127,762.573547 447.692291,759.526001 
	C433.073517,719.706909 418.338013,679.930786 403.653015,640.136047 
	C402.978943,638.309387 402.504364,636.409119 401.957458,634.610840 
	C404.341766,633.141418 406.554932,633.827271 409.138794,633.628723 
z"/>
	<path opacity="1.000000" stroke="none" d="
M759.925232,663.244507 
	C753.018555,663.415405 746.461914,662.473511 740.051270,663.628601 
	C726.336548,666.099731 717.483826,677.480408 716.251038,692.473633 
	C714.486450,713.935364 715.848022,735.410950 715.332397,756.872131 
	C715.285461,758.828796 715.767029,760.856689 714.527954,763.321472 
	C704.821960,763.321472 694.878479,763.430969 684.939575,763.262756 
	C681.410095,763.203003 682.093811,760.078796 682.083435,757.923584 
	C682.015137,743.764648 682.072083,729.605164 682.074402,715.445862 
	C682.078491,690.125305 682.176392,664.803955 681.977722,639.484924 
	C681.941040,634.815491 683.484619,633.386597 688.013550,633.569458 
	C695.497437,633.871643 703.004639,633.744690 710.497986,633.596619 
	C713.803955,633.531250 714.786377,634.742798 714.627197,638.036194 
	C714.367615,643.409241 713.653687,648.873901 715.396606,654.871887 
	C718.090881,651.283630 720.269226,648.184448 722.648865,645.248474 
	C731.622925,634.176636 743.237061,629.333374 757.441223,630.656677 
	C759.366638,630.835999 761.266907,630.922241 761.253357,633.492065 
	C761.202454,643.141113 761.102783,652.789856 760.985657,662.438293 
	C760.982666,662.679993 760.566040,662.916626 759.925232,663.244507 
z"/>
</svg>